<?xml version="1.0" encoding="UTF-8" standalone="no"?>
<!-- Created with Inkscape (http://www.inkscape.org/) -->

<svg
   xmlns:dc="http://purl.org/dc/elements/1.1/"
   xmlns:cc="http://creativecommons.org/ns#"
   xmlns:rdf="http://www.w3.org/1999/02/22-rdf-syntax-ns#"
   xmlns:svg="http://www.w3.org/2000/svg"
   xmlns="http://www.w3.org/2000/svg"
   xmlns:xlink="http://www.w3.org/1999/xlink"
   xmlns:sodipodi="http://sodipodi.sourceforge.net/DTD/sodipodi-0.dtd"
   xmlns:inkscape="http://www.inkscape.org/namespaces/inkscape"
   sodipodi:docname="discord.svg"
   inkscape:version="0.92.4 (5da689c313, 2019-01-14)"
   id="SVGRoot"
   version="1.1"
   viewBox="0 0 486.42856 486.42856"
   height="486.42856"
   width="486.42856"
   inkscape:export-filename="C:\Users\nikit\dev\drahko\assets\discord.png"
   inkscape:export-xdpi="96"
   inkscape:export-ydpi="96">
  <defs
     id="defs3761">
    <linearGradient
       id="linearGradient4608"
       inkscape:collect="always">
      <stop
         id="stop4604"
         offset="0"
         style="stop-color:#15ff72;stop-opacity:1" />
      <stop
         id="stop4606"
         offset="1"
         style="stop-color:#39ffef;stop-opacity:1" />
    </linearGradient>
    <linearGradient
       inkscape:collect="always"
       id="linearGradient4588">
      <stop
         style="stop-color:#000000;stop-opacity:1;"
         offset="0"
         id="stop4584" />
      <stop
         style="stop-color:#000000;stop-opacity:0;"
         offset="1"
         id="stop4586" />
    </linearGradient>
    <linearGradient
       inkscape:collect="always"
       xlink:href="#linearGradient4588"
       id="linearGradient4590"
       x1="340.84308"
       y1="250.08559"
       x2="1593.239"
       y2="250.08559"
       gradientUnits="userSpaceOnUse" />
    <linearGradient
       inkscape:collect="always"
       xlink:href="#linearGradient4608"
       id="linearGradient4602"
       x1="82.857132"
       y1="872.94275"
       x2="1593.239"
       y2="-395.62869"
       gradientUnits="userSpaceOnUse" />
    <linearGradient
       inkscape:collect="always"
       xlink:href="#linearGradient4608"
       id="linearGradient4612"
       gradientUnits="userSpaceOnUse"
       x1="82.857132"
       y1="872.94275"
       x2="1593.239"
       y2="-395.62869" />
    <linearGradient
       inkscape:collect="always"
       xlink:href="#linearGradient4608"
       id="linearGradient833"
       gradientUnits="userSpaceOnUse"
       x1="82.857132"
       y1="872.94275"
       x2="1593.239"
       y2="-395.62869" />
  </defs>
  <sodipodi:namedview
     id="base"
     pagecolor="#ffffff"
     bordercolor="#666666"
     borderopacity="1.0"
     inkscape:pageopacity="0.0"
     inkscape:pageshadow="2"
     inkscape:zoom="1.4"
     inkscape:cx="103.42464"
     inkscape:cy="242.41002"
     inkscape:document-units="px"
     inkscape:current-layer="layer1"
     showgrid="false"
     inkscape:window-width="1920"
     inkscape:window-height="1027"
     inkscape:window-x="-8"
     inkscape:window-y="-8"
     inkscape:window-maximized="1"
     fit-margin-top="5"
     fit-margin-left="5"
     fit-margin-right="5"
     fit-margin-bottom="5"
     inkscape:pagecheckerboard="true">
    <sodipodi:guide
       id="guide844"
       position="107.14281,243.35712"
       orientation="0,1"
       inkscape:locked="false" />
    <sodipodi:guide
       id="guide846"
       position="243.64281,106.85712"
       orientation="1,0"
       inkscape:locked="false" />
  </sodipodi:namedview>
  <metadata
     id="metadata3764">
    <rdf:RDF>
      <cc:Work
         rdf:about="">
        <dc:format>image/svg+xml</dc:format>
        <dc:type
           rdf:resource="http://purl.org/dc/dcmitype/StillImage" />
        <dc:title />
      </cc:Work>
    </rdf:RDF>
  </metadata>
  <g
     inkscape:label="Layer 1"
     inkscape:groupmode="layer"
     id="layer1"
     transform="translate(-266.20027,-5.8526764)">
    <circle
       style="fill:#ffffff;fill-opacity:1"
       id="path831"
       cx="509.41455"
       cy="249.06696"
       r="238.21428" />
    <flowRoot
       xml:space="preserve"
       id="flowRoot3774"
       style="font-style:normal;font-variant:normal;font-weight:normal;font-stretch:normal;font-size:40px;line-height:1.25;font-family:Broadway;-inkscape-font-specification:Broadway;text-align:center;letter-spacing:0px;word-spacing:0px;text-anchor:middle;fill:#000000;fill-opacity:1;stroke:none"><flowRegion
         id="flowRegion3776"
         style="font-style:normal;font-variant:normal;font-weight:normal;font-stretch:normal;font-family:Broadway;-inkscape-font-specification:Broadway;text-align:center;text-anchor:middle"><rect
           id="rect3778"
           width="1862.8572"
           height="422.85715"
           x="25.714285"
           y="37.142857"
           style="font-style:normal;font-variant:normal;font-weight:normal;font-stretch:normal;font-family:Broadway;-inkscape-font-specification:Broadway;text-align:center;text-anchor:middle" /></flowRegion><flowPara
         id="flowPara3780"
         style="font-style:normal;font-variant:normal;font-weight:normal;font-stretch:normal;font-family:Broadway;-inkscape-font-specification:Broadway" /></flowRoot>    <g
       id="g4594"
       style="fill:url(#linearGradient4602);fill-opacity:1"
       transform="matrix(1.31499,0,0,1.31499,-147.22894,-95.306748)">
      <g
         aria-label="drahko"
         style="font-style:normal;font-weight:normal;font-size:40px;line-height:1.25;font-family:sans-serif;letter-spacing:0px;word-spacing:0px;fill:url(#linearGradient4612);fill-opacity:1;stroke:none"
         id="text3784">
        <path
           d="m 571.93684,285.26788 c 0,8.38542 0.91146,15.61632 2.73437,21.69271 1.82292,5.95486 5.28646,10.51215 10.39063,13.67188 0.12153,0.97222 0.18229,2.1875 0.18229,3.64583 v 3.09896 c 0,9.23611 -1.45833,17.19618 -4.375,23.88021 -2.91667,6.68403 -6.74479,12.21354 -11.48438,16.58854 -4.61805,4.25347 -9.90451,7.41319 -15.85937,9.47916 -5.95486,2.06597 -12.03125,3.09896 -18.22917,3.09896 -4.375,0 -8.68924,-0.48611 -12.94271,-1.45833 -4.13194,-0.97222 -8.08159,-2.49132 -11.84896,-4.55729 -3.64583,-2.06597 -6.98785,-4.67882 -10.02604,-7.83854 -2.91667,-3.15973 -5.22569,-6.86633 -6.92708,-11.1198 -4.13195,0 -6.19792,2.00521 -6.19792,6.01563 0,1.70139 0.6684,3.76736 2.00521,6.19792 1.45833,2.30903 3.40278,4.43576 5.83333,6.3802 -3.5243,2.06597 -7.83853,3.64584 -12.9427,4.73959 -5.10417,1.09375 -10.08681,1.64062 -14.94792,1.64062 -7.17014,0 -14.34028,-0.78993 -21.51042,-2.36979 -7.17014,-1.57986 -14.03646,-4.07118 -20.59896,-7.47396 -6.5625,-3.52431 -12.69965,-7.96007 -18.41146,-13.30729 -5.71181,-5.46875 -10.69444,-11.97048 -14.94791,-19.50521 -4.13195,-7.65625 -7.4132,-16.40625 -9.84375,-26.25 -2.43056,-9.84375 -3.64584,-21.0243 -3.64584,-33.54167 0,-15.92014 2.36979,-30.07813 7.10938,-42.47396 4.73958,-12.39583 11.24132,-22.84722 19.50521,-31.35416 8.38541,-8.50695 18.22916,-14.94792 29.53125,-19.32292 11.42361,-4.49653 23.69791,-6.74479 36.82292,-6.74479 9.23611,0 17.3177,0.91146 24.24479,2.73437 6.92708,1.82292 12.82118,3.94966 17.68229,6.38021 0.60764,-0.60764 1.09375,-1.27604 1.45833,-2.00521 0.36459,-0.85069 0.54688,-1.57986 0.54688,-2.1875 0,-1.94444 -1.27604,-3.70659 -3.82813,-5.28646 -2.43055,-1.57986 -5.59027,-2.91666 -9.47916,-4.01041 -3.76737,-1.21528 -7.96008,-2.12674 -12.57813,-2.73438 -4.61805,-0.72917 -8.99305,-1.09375 -13.125,-1.09375 0,-2.30903 -0.12153,-4.80035 -0.36458,-7.47396 -0.12153,-2.79513 -0.42535,-5.46874 -0.91146,-8.02083 -0.36459,-2.67361 -0.8507,-5.2257 -1.45833,-7.65625 -0.60764,-2.55208 -1.33681,-4.73958 -2.1875,-6.5625 2.79513,-3.28125 5.83333,-6.31944 9.11458,-9.11458 3.28125,-2.79514 6.92708,-5.16493 10.9375,-7.10938 4.13195,-2.06597 8.68924,-3.64583 13.67187,-4.73958 5.10417,-1.21528 10.87674,-1.82292 17.31771,-1.82292 7.04861,0 13.61111,1.03299 19.6875,3.09896 6.07639,2.06597 11.30209,5.16493 15.67709,9.29687 4.49653,4.01042 7.96007,8.99306 10.39062,14.94792 2.55209,5.83333 3.82813,12.57813 3.82813,20.23438 z"
           style="font-style:normal;font-variant:normal;font-weight:normal;font-stretch:normal;font-size:373.33334351px;font-family:Modak;-inkscape-font-specification:Modak;text-align:center;letter-spacing:-5px;text-anchor:middle;fill:url(#linearGradient833);fill-opacity:1"
           id="path4614"
           inkscape:connector-curvature="0"
           sodipodi:nodetypes="sccssscssccccscccsscccsssccscccscccccccccccssccss" />
      </g>
    </g>
  </g>
</svg>
