<?xml version="1.0" encoding="UTF-8" standalone="no"?>
<!-- Created with Inkscape (http://www.inkscape.org/) -->

<svg
   xmlns:dc="http://purl.org/dc/elements/1.1/"
   xmlns:cc="http://creativecommons.org/ns#"
   xmlns:rdf="http://www.w3.org/1999/02/22-rdf-syntax-ns#"
   xmlns:svg="http://www.w3.org/2000/svg"
   xmlns="http://www.w3.org/2000/svg"
   xmlns:xlink="http://www.w3.org/1999/xlink"
   xmlns:sodipodi="http://sodipodi.sourceforge.net/DTD/sodipodi-0.dtd"
   xmlns:inkscape="http://www.inkscape.org/namespaces/inkscape"
   sodipodi:docname="logo.svg"
   inkscape:version="0.92.4 (5da689c313, 2019-01-14)"
   id="SVGRoot"
   version="1.1"
   viewBox="0 0 1187.3959 275.41669"
   height="275.41669"
   width="1187.3959"
   inkscape:export-filename="C:\Users\nikit\dev\idris-autohotkey\assets\logo.png"
   inkscape:export-xdpi="96"
   inkscape:export-ydpi="96">
  <defs
     id="defs3761">
    <linearGradient
       id="linearGradient4608"
       inkscape:collect="always">
      <stop
         id="stop4604"
         offset="0"
         style="stop-color:#15ff72;stop-opacity:1" />
      <stop
         id="stop4606"
         offset="1"
         style="stop-color:#39ffef;stop-opacity:1" />
    </linearGradient>
    <linearGradient
       inkscape:collect="always"
       id="linearGradient4588">
      <stop
         style="stop-color:#000000;stop-opacity:1;"
         offset="0"
         id="stop4584" />
      <stop
         style="stop-color:#000000;stop-opacity:0;"
         offset="1"
         id="stop4586" />
    </linearGradient>
    <linearGradient
       inkscape:collect="always"
       xlink:href="#linearGradient4588"
       id="linearGradient4590"
       x1="340.84308"
       y1="250.08559"
       x2="1593.239"
       y2="250.08559"
       gradientUnits="userSpaceOnUse" />
    <linearGradient
       inkscape:collect="always"
       xlink:href="#linearGradient4608"
       id="linearGradient4602"
       x1="82.857132"
       y1="872.94275"
       x2="1593.239"
       y2="-395.62869"
       gradientUnits="userSpaceOnUse" />
    <linearGradient
       inkscape:collect="always"
       xlink:href="#linearGradient4608"
       id="linearGradient4612"
       gradientUnits="userSpaceOnUse"
       x1="82.857132"
       y1="872.94275"
       x2="1593.239"
       y2="-395.62869" />
  </defs>
  <sodipodi:namedview
     id="base"
     pagecolor="#ffffff"
     bordercolor="#666666"
     borderopacity="1.0"
     inkscape:pageopacity="0.0"
     inkscape:pageshadow="2"
     inkscape:zoom="0.49497475"
     inkscape:cx="509.71982"
     inkscape:cy="38.779226"
     inkscape:document-units="px"
     inkscape:current-layer="layer1"
     showgrid="false"
     inkscape:window-width="1920"
     inkscape:window-height="1057"
     inkscape:window-x="-8"
     inkscape:window-y="-8"
     inkscape:window-maximized="1"
     fit-margin-top="5"
     fit-margin-left="5"
     fit-margin-right="5"
     fit-margin-bottom="5" />
  <metadata
     id="metadata3764">
    <rdf:RDF>
      <cc:Work
         rdf:about="">
        <dc:format>image/svg+xml</dc:format>
        <dc:type
           rdf:resource="http://purl.org/dc/dcmitype/StillImage" />
        <dc:title></dc:title>
      </cc:Work>
    </rdf:RDF>
  </metadata>
  <g
     inkscape:label="Layer 1"
     inkscape:groupmode="layer"
     id="layer1"
     transform="translate(-373.34308,-112.37725)">
    <flowRoot
       xml:space="preserve"
       id="flowRoot3774"
       style="font-style:normal;font-variant:normal;font-weight:normal;font-stretch:normal;font-size:40px;line-height:1.25;font-family:Broadway;-inkscape-font-specification:Broadway;text-align:center;letter-spacing:0px;word-spacing:0px;text-anchor:middle;fill:#000000;fill-opacity:1;stroke:none"><flowRegion
         id="flowRegion3776"
         style="font-style:normal;font-variant:normal;font-weight:normal;font-stretch:normal;font-family:Broadway;-inkscape-font-specification:Broadway;text-align:center;text-anchor:middle"><rect
           id="rect3778"
           width="1862.8572"
           height="422.85715"
           x="25.714285"
           y="37.142857"
           style="font-style:normal;font-variant:normal;font-weight:normal;font-stretch:normal;font-family:Broadway;-inkscape-font-specification:Broadway;text-align:center;text-anchor:middle" /></flowRegion><flowPara
         id="flowPara3780"
         style="font-style:normal;font-variant:normal;font-weight:normal;font-stretch:normal;font-family:Broadway;-inkscape-font-specification:Broadway" /></flowRoot>    <g
       id="g4594"
       style="fill:url(#linearGradient4602);fill-opacity:1">
      <g
         aria-label="drahko"
         style="font-style:normal;font-weight:normal;font-size:40px;line-height:1.25;font-family:sans-serif;letter-spacing:0px;word-spacing:0px;fill:url(#linearGradient4612);fill-opacity:1;stroke:none"
         id="text3784">
        <path
           d="m 571.93684,285.26788 c 0,8.38542 0.91146,15.61632 2.73437,21.69271 1.82292,5.95486 5.28646,10.51215 10.39063,13.67188 0.12153,0.97222 0.18229,2.1875 0.18229,3.64583 v 3.09896 c 0,9.23611 -1.45833,17.19618 -4.375,23.88021 -2.91667,6.68403 -6.74479,12.21354 -11.48438,16.58854 -4.61805,4.25347 -9.90451,7.41319 -15.85937,9.47916 -5.95486,2.06597 -12.03125,3.09896 -18.22917,3.09896 -4.375,0 -8.68924,-0.48611 -12.94271,-1.45833 -4.13194,-0.97222 -8.08159,-2.49132 -11.84896,-4.55729 -3.64583,-2.06597 -6.98785,-4.67882 -10.02604,-7.83854 -2.91667,-3.15973 -5.22569,-6.86633 -6.92708,-11.1198 -4.13195,0 -6.19792,2.00521 -6.19792,6.01563 0,1.70139 0.6684,3.76736 2.00521,6.19792 1.45833,2.30903 3.40278,4.43576 5.83333,6.3802 -3.5243,2.06597 -7.83853,3.64584 -12.9427,4.73959 -5.10417,1.09375 -10.08681,1.64062 -14.94792,1.64062 -7.17014,0 -14.34028,-0.78993 -21.51042,-2.36979 -7.17014,-1.57986 -14.03646,-4.07118 -20.59896,-7.47396 -6.5625,-3.52431 -12.69965,-7.96007 -18.41146,-13.30729 -5.71181,-5.46875 -10.69444,-11.97048 -14.94791,-19.50521 -4.13195,-7.65625 -7.4132,-16.40625 -9.84375,-26.25 -2.43056,-9.84375 -3.64584,-21.0243 -3.64584,-33.54167 0,-15.92014 2.36979,-30.07813 7.10938,-42.47396 4.73958,-12.39583 11.24132,-22.84722 19.50521,-31.35416 8.38541,-8.50695 18.22916,-14.94792 29.53125,-19.32292 11.42361,-4.49653 23.69791,-6.74479 36.82292,-6.74479 9.23611,0 17.3177,0.91146 24.24479,2.73437 6.92708,1.82292 12.82118,3.94966 17.68229,6.38021 0.60764,-0.60764 1.09375,-1.27604 1.45833,-2.00521 0.36459,-0.85069 0.54688,-1.57986 0.54688,-2.1875 0,-1.94444 -1.27604,-3.70659 -3.82813,-5.28646 -2.43055,-1.57986 -5.59027,-2.91666 -9.47916,-4.01041 -3.76737,-1.21528 -7.96008,-2.12674 -12.57813,-2.73438 -4.61805,-0.72917 -8.99305,-1.09375 -13.125,-1.09375 0,-2.30903 -0.12153,-4.80035 -0.36458,-7.47396 -0.12153,-2.79513 -0.42535,-5.46874 -0.91146,-8.02083 -0.36459,-2.67361 -0.8507,-5.2257 -1.45833,-7.65625 -0.60764,-2.55208 -1.33681,-4.73958 -2.1875,-6.5625 2.79513,-3.28125 5.83333,-6.31944 9.11458,-9.11458 3.28125,-2.79514 6.92708,-5.16493 10.9375,-7.10938 4.13195,-2.06597 8.68924,-3.64583 13.67187,-4.73958 5.10417,-1.21528 10.87674,-1.82292 17.31771,-1.82292 7.04861,0 13.61111,1.03299 19.6875,3.09896 6.07639,2.06597 11.30209,5.16493 15.67709,9.29687 4.49653,4.01042 7.96007,8.99306 10.39062,14.94792 2.55209,5.83333 3.82813,12.57813 3.82813,20.23438 z"
           style="font-style:normal;font-variant:normal;font-weight:normal;font-stretch:normal;font-size:373.33334351px;font-family:Modak;-inkscape-font-specification:Modak;text-align:center;letter-spacing:-5px;text-anchor:middle;fill:url(#linearGradient4612);fill-opacity:1"
           id="path4614"
           inkscape:connector-curvature="0"
           sodipodi:nodetypes="sccssscssccccscccsscccsssccscccscccccccccccssccss" />
        <path
           d="m 618.88996,177.89809 q 11.30209,0 18.77605,3.64583 7.65625,3.64583 12.03125,10.20833 -2.3698,2.55209 -4.5573,6.19792 -2.0052,3.64583 -3.64583,7.29167 -1.45833,3.46354 -2.36979,6.74479 -0.91146,3.09896 -0.91146,4.92187 0,2.1875 1.64063,4.01042 1.64062,1.64063 5.10416,1.64063 3.46354,-13.48959 9.66146,-22.60417 6.38021,-9.11459 14.40104,-14.58334 8.20313,-5.46875 17.5,-7.65625 9.47917,-2.36979 19.14063,-2.36979 7.83854,0 14.40104,1.09375 6.5625,0.91146 11.84896,2.55209 5.28646,1.64062 9.29688,3.82812 4.01041,2.00521 6.74479,4.01042 2.91666,7.65625 4.19271,16.22396 1.27604,8.56771 1.27604,16.77083 0,14.76563 -2.73438,24.60938 -2.55208,9.84375 -5.65104,16.22396 -2.91667,1.45833 -7.29167,2.91666 -4.375,1.45834 -9.66146,2.55209 -5.10416,1.09375 -10.9375,1.82291 -5.83333,0.54688 -11.48437,0.54688 -6.01563,0 -10.75521,-0.36459 -4.55729,-0.36458 -8.38542,-0.91145 -3.82812,-0.72917 -7.10937,-1.45834 -3.09896,-0.91146 -6.38021,-1.64062 -1.45833,1.45833 -1.45833,4.19271 0,2.55208 3.28125,4.01041 3.46354,1.45834 12.21354,3.09896 v 91.51042 q -6.19792,4.01042 -12.57813,6.5625 -6.38021,2.36979 -12.57812,3.64583 -6.01563,1.45834 -11.66667,1.82292 -5.46875,0.54688 -10.20833,0.54688 -10.20834,0 -19.14063,-2.00521 -8.93229,-1.82292 -15.67708,-5.65105 -6.5625,-4.01041 -10.39063,-10.02604 -3.82812,-6.01562 -3.82812,-14.40104 v -93.88021 q -5.46875,-7.65625 -8.20313,-17.31771 -2.55208,-9.66146 -2.55208,-20.23437 0,-8.75 2.55208,-19.32292 2.73438,-10.57292 8.20313,-18.77604 z"
           style="font-style:normal;font-variant:normal;font-weight:normal;font-stretch:normal;font-size:373.33334351px;font-family:Modak;-inkscape-font-specification:Modak;text-align:center;letter-spacing:-5px;text-anchor:middle;fill:url(#linearGradient4612);fill-opacity:1"
           id="path4616" />
        <path
           d="m 929.61915,286.90851 c 0,8.38541 0.91146,15.3125 2.73437,20.78125 1.82292,5.46875 5.28646,9.78298 10.39063,12.94271 0.12153,0.97222 0.18229,2.1875 0.18229,3.64583 v 3.09896 c 0,9.23611 -1.45833,17.19618 -4.375,23.88021 -2.91667,6.68403 -6.74479,12.21354 -11.48437,16.58854 -4.61806,4.25347 -9.90452,7.41319 -15.85938,9.47916 -5.95486,2.06597 -12.03125,3.09896 -18.22917,3.09896 -4.375,0 -8.68924,-0.54687 -12.94271,-1.64062 -4.13194,-0.97223 -8.08159,-2.49132 -11.84895,-4.55729 -3.64583,-2.06597 -6.98785,-4.67882 -10.02605,-7.83855 -2.91667,-3.28125 -5.22569,-7.10937 -6.92708,-11.48437 -2.06597,0 -3.64583,0.54687 -4.73958,1.64062 -0.97223,1.09375 -1.45834,2.55209 -1.45834,4.375 0,1.70139 0.54688,3.52431 1.64063,5.46875 1.09375,1.94445 2.67361,3.94966 4.73958,6.01563 -3.88889,2.67361 -9.11458,4.67882 -15.67708,6.01563 -6.5625,1.3368 -13.24653,2.0052 -20.05209,2.0052 -11.05903,0 -21.14583,-1.5191 -30.26041,-4.55729 -8.99306,-3.03819 -16.77084,-7.53472 -23.33334,-13.48958 -6.44097,-5.95486 -11.48438,-13.18576 -15.13021,-21.69271 -3.5243,-8.62847 -5.28645,-18.53299 -5.28645,-29.71354 0,-11.54514 1.88368,-21.51042 5.65104,-29.89584 3.88889,-8.50694 9.11458,-15.49479 15.67708,-20.96354 6.5625,-5.59028 14.15799,-9.72222 22.78646,-12.39583 8.75,-2.67361 17.98611,-4.01042 27.70833,-4.01042 4.37501,0 8.2639,0.18229 11.66667,0.54687 3.40278,0.24306 6.31945,0.54688 8.75,0.91146 2.79514,0.48611 5.16493,0.97223 7.10938,1.45834 0.36458,-1.21528 0.54687,-2.24827 0.54687,-3.09896 0,-1.57986 -0.85069,-2.91667 -2.55208,-4.01042 -1.57986,-1.09375 -3.7066,-1.88368 -6.38021,-2.36979 -2.67361,-0.60764 -5.77257,-1.03299 -9.29687,-1.27604 -3.52431,-0.24306 -7.10938,-0.36459 -10.75521,-0.36459 -8.26389,0 -16.52778,0.91146 -24.79167,2.73438 -8.26389,1.82291 -15.67708,4.61805 -22.23958,8.38542 -2.67361,-4.49653 -4.86111,-10.20834 -6.5625,-17.13542 -1.57987,-6.92709 -2.3698,-13.9757 -2.3698,-21.14583 0,-3.40278 0.18229,-6.80556 0.54688,-10.20834 0.48611,-3.52431 1.39756,-6.62326 2.73437,-9.29687 3.15973,-1.45833 7.17014,-3.0382 12.03125,-4.73959 4.98264,-1.82291 10.69445,-3.46354 17.13542,-4.92187 6.5625,-1.57986 13.73264,-2.91667 21.51042,-4.01042 7.89931,-1.09375 16.34549,-1.64062 25.33854,-1.64062 15.67709,0 29.34896,1.76215 41.01563,5.28645 11.78819,3.52431 21.57118,8.62847 29.34896,15.3125 7.77777,6.56251 13.61111,14.70487 17.5,24.42709 3.88889,9.60069 5.83333,20.47743 5.83333,32.63021 z"
           style="font-style:normal;font-variant:normal;font-weight:normal;font-stretch:normal;font-size:373.33334351px;font-family:Modak;-inkscape-font-specification:Modak;text-align:center;letter-spacing:-5px;text-anchor:middle;fill:url(#linearGradient4612);fill-opacity:1"
           id="path4618"
           inkscape:connector-curvature="0"
           sodipodi:nodetypes="sccssscsscccccsccsscccscccscccscccssccscccccscccss" />
        <path
           d="m 1042.1973,170.60642 q -8.9323,0.54687 -16.7709,3.28125 -7.8385,2.55208 -13.6719,6.01562 -5.8333,3.28125 -9.2968,6.92709 -3.28128,3.46354 -3.28128,6.19791 0,2.18751 1.45838,3.64584 1.6406,1.45833 3.4635,1.82292 3.2812,-3.82813 8.3854,-7.47396 5.1042,-3.82813 12.0313,-6.7448 6.927,-3.09895 15.8593,-4.92187 8.9323,-1.82292 20.0521,-1.82292 7.2917,0 15.6771,1.27604 8.5677,1.27605 17.1354,4.5573 8.5677,3.28125 16.4063,8.75 7.8385,5.28646 13.8541,13.48958 6.198,8.20313 9.8438,19.50521 3.6458,11.30208 3.6458,26.25 0,8.20313 -0.3646,17.5 -0.1823,9.29688 -0.1823,18.04688 0,12.57812 2.7344,20.78125 2.7344,8.20312 10.3906,12.94271 0.1823,1.45833 0.1823,3.64583 0,2.00521 0,3.09896 0,12.94271 -4.0104,22.96875 -4.0104,9.84375 -10.9375,16.58854 -6.9271,6.74479 -16.2239,10.20833 -9.1146,3.28125 -19.5052,3.28125 -10.9375,0 -20.9636,-3.09896 -9.8437,-2.91666 -17.5,-9.66145 -7.4739,-6.92709 -12.0312,-17.86459 -4.375,-11.11979 -4.375,-27.16146 0,-8.56771 0.5468,-16.22396 0.7292,-7.65625 1.4584,-14.21875 0.9114,-6.74479 1.6406,-12.39583 0.7292,-5.65104 0.7292,-10.39062 0,-8.75 -2.0052,-11.84896 -1.823,-3.28125 -6.0157,-3.28125 -2.7343,0 -5.1041,1.45833 l 2.3698,29.71354 q -0.9115,5.46875 -1.6407,11.11979 -0.5468,5.46875 -0.9114,10.39063 -0.3646,4.92187 -0.5469,8.93229 -0.1823,4.01042 -0.1823,6.5625 0,14.21875 2.7344,23.51563 2.9166,9.29687 6.5625,16.04166 -8.0209,8.38542 -20.9636,13.48959 -12.7604,4.92187 -29.16663,4.92187 -8.20313,0 -16.77084,-2.36979 -8.38541,-2.36979 -15.3125,-7.10937 -6.74479,-4.92188 -11.11979,-12.03125 -4.375,-7.29167 -4.375,-17.13542 V 129.04392 q 8.38542,-4.92188 20.59896,-8.20313 12.39583,-3.46354 25.33854,-3.46354 9.47916,0 18.41146,2.00521 9.1146,2.00521 16.0417,6.38021 7.1093,4.19271 11.3021,11.11979 4.375,6.74479 4.375,16.40625 z"
           style="font-style:normal;font-variant:normal;font-weight:normal;font-stretch:normal;font-size:373.33334351px;font-family:Modak;-inkscape-font-specification:Modak;text-align:center;letter-spacing:-5px;text-anchor:middle;fill:url(#linearGradient4612);fill-opacity:1"
           id="path4620" />
        <path
           d="m 1250.2963,361.83038 q -8.0209,8.38542 -20.9636,13.48959 -12.7604,5.10416 -29.1667,5.10416 -8.2031,0 -16.7708,-2.36979 -8.3854,-2.36979 -15.3125,-7.10937 -6.7448,-4.92188 -11.1198,-12.03125 -4.375,-7.29167 -4.375,-17.13542 V 129.04392 q 8.3854,-4.92188 20.599,-8.20313 12.3958,-3.46354 25.3385,-3.46354 9.4792,0 18.4115,2.00521 9.1146,2.00521 16.0416,6.38021 7.1094,4.19271 11.3021,11.11979 4.375,6.74479 4.375,16.40625 v 19.32292 q 0,13.67187 -2.5521,25.52083 -2.3697,11.84896 -6.0156,21.875 -1.276,2.00521 -3.8281,4.73959 -2.5521,2.73437 -5.1042,5.65104 -2.3698,2.91666 -4.1927,5.65104 -1.8229,2.73437 -1.8229,4.55729 0,3.28125 4.375,5.46875 7.474,-6.92708 12.9427,-14.21875 5.6511,-7.29167 10.0261,-15.67708 4.375,-8.56771 7.6562,-18.41146 3.4635,-10.02604 6.5625,-22.23959 2.3698,-0.36458 5.8333,-0.91145 3.6459,-0.72917 7.2917,-1.27605 3.8281,-0.72916 7.1094,-1.09375 3.4635,-0.54687 5.651,-0.54687 13.6719,0 24.6094,3.28125 11.1198,3.09896 18.776,9.47917 7.6563,6.19791 11.849,15.49479 4.1927,9.11458 4.1927,21.14583 0,11.30209 -3.8281,20.59896 -3.8281,9.29688 -10.5729,16.77084 -6.5625,7.29166 -15.3125,12.76041 -8.75,5.28646 -18.5938,8.75 4.9219,2.91667 9.6615,5.10417 4.7396,2.00521 9.6614,3.64583 4.9219,1.64063 10.3907,2.91667 5.651,1.27604 12.5781,2.36979 4.9219,8.93229 7.2916,18.22917 2.5521,9.29687 2.5521,18.22917 0,10.20833 -3.2812,19.32291 -3.099,9.11459 -9.6615,16.04167 -6.3802,6.74479 -16.2239,10.75521 -9.6615,3.82812 -22.6042,3.82812 -12.7604,0 -23.3333,-4.92187 -10.3907,-5.10417 -18.2292,-14.40104 -7.8385,-9.29688 -12.7604,-22.60417 -4.9219,-13.30729 -6.5625,-29.89584 l -8.75,3.82813 q 0,6.19792 1.276,12.94271 1.2761,6.74479 3.2813,13.30729 2.1875,6.38021 5.1041,12.39583 2.9167,6.01563 6.198,10.75521 z"
           style="font-style:normal;font-variant:normal;font-weight:normal;font-stretch:normal;font-size:373.33334351px;font-family:Modak;-inkscape-font-specification:Modak;text-align:center;letter-spacing:-5px;text-anchor:middle;fill:url(#linearGradient4612);fill-opacity:1"
           id="path4622" />
        <path
           d="m 1453.8379,382.79393 c -14.2187,0 -27.5868,-2.1875 -40.1042,-6.56251 -12.3958,-4.375 -23.2118,-10.99826 -32.4479,-19.86979 -9.1146,-8.87153 -16.3455,-19.93055 -21.6927,-33.17708 -5.3472,-13.24653 -8.0208,-28.74132 -8.0208,-46.48438 0,-16.04167 2.4913,-30.50347 7.4739,-43.38542 4.9827,-13.00347 11.9705,-24.06249 20.9636,-33.17708 8.9931,-9.11459 19.7483,-16.10243 32.2656,-20.96354 12.5173,-4.86111 26.3715,-7.29167 41.5625,-7.29167 15.191,0 29.0452,2.61285 41.5625,7.83854 12.5173,5.22569 23.2118,12.57813 32.0833,22.0573 8.9931,9.35763 15.9202,20.59895 20.7813,33.72395 4.9826,13.00347 7.4739,27.28299 7.4739,42.83855 0,16.04167 -2.309,30.50347 -6.927,43.38542 -4.6181,12.88194 -11.3021,23.8802 -20.0521,32.99479 -8.75,8.99305 -19.4445,15.92014 -32.0834,20.78125 -12.6389,4.86111 -26.9184,7.29167 -42.8385,7.29167 z"
           style="font-style:normal;font-variant:normal;font-weight:normal;font-stretch:normal;font-size:373.33334351px;font-family:Modak;-inkscape-font-specification:Modak;text-align:center;letter-spacing:-5px;text-anchor:middle;fill:url(#linearGradient4612);fill-opacity:1"
           id="path4624"
           inkscape:connector-curvature="0"
           sodipodi:nodetypes="sccsscssssccscccs" />
      </g>
    </g>
  </g>
</svg>
